<mxfile host="app.diagrams.net" modified="2024-03-03T06:03:20.915Z" agent="Mozilla/5.0 (iPhone; CPU iPhone OS 16_7_5 like Mac OS X) AppleWebKit/605.1.15 (KHTML, like Gecko) Version/16.6 Mobile/15E148 Safari/604.1" version="24.0.1" etag="mwrupVfBIxr1Di1sND7Z" type="github">
  <diagram name="Seite-1" id="V_7Kx2NSNo_AwtaZE_t0">
    <mxGraphModel>
      <root>
        <mxCell id="0" />
        <mxCell id="1" parent="0" />
      </root>
    </mxGraphModel>
  </diagram>
</mxfile>
